/* XPM */
static char *result[] = {
/* columns rows colors chars-per-pixel */
"32 32 197 2 ",
"   c #000001",
".  c #00000A",
"X  c #000016",
"o  c #00001B",
"O  c #1F0C1D",
"+  c #2E0D16",
"@  c #22131D",
"#  c #000024",
"$  c #0D0022",
"%  c #00002A",
"&  c #0E002A",
"*  c #100527",
"=  c #1E0F25",
"-  c #1A0D2B",
";  c #1F1126",
":  c #190937",
">  c #241729",
",  c #2B2223",
"<  c #372121",
"1  c #392525",
"2  c #3E2924",
"3  c #2A2939",
"4  c #312831",
"5  c #38323C",
"6  c #522B1D",
"7  c #573818",
"8  c #422723",
"9  c #473026",
"0  c #4D3429",
"q  c #533625",
"w  c #563927",
"e  c #583A27",
"r  c #543728",
"t  c #51382A",
"y  c #5B3C28",
"u  c #483B36",
"i  c #513D3B",
"p  c #614E18",
"a  c #5E4428",
"s  c #595122",
"d  c #4B433E",
"f  c #644424",
"g  c #6C4425",
"h  c #65452A",
"j  c #6A4A2C",
"k  c #714726",
"l  c #764927",
"z  c #754C2A",
"x  c #6B5A30",
"c  c #72573B",
"v  c #736824",
"b  c #7E6F2A",
"n  c #4E4847",
"m  c #554C48",
"M  c #584E51",
"N  c #655B4E",
"B  c #735F47",
"V  c #635752",
"C  c #645A52",
"Z  c #6A5F5A",
"A  c #6C6454",
"S  c #6F635B",
"D  c #726A55",
"F  c #756B5A",
"G  c #7A6E5F",
"H  c #7B735C",
"J  c #746764",
"K  c #776B63",
"L  c #7A6D66",
"P  c #7C7162",
"I  c #7F7368",
"U  c #917610",
"Y  c #814E27",
"T  c #894B21",
"R  c #875427",
"E  c #855927",
"W  c #8B5A26",
"Q  c #8D5F28",
"!  c #915C25",
"~  c #87652B",
"^  c #936427",
"/  c #966A29",
"(  c #9A682A",
")  c #867C27",
"_  c #82742D",
"`  c #93742D",
"'  c #9D7429",
"]  c #986830",
"[  c #887F32",
"{  c #9C7135",
"}  c #A96B2F",
"|  c #A3742C",
" . c #AD7331",
".. c #B67633",
"X. c #B67B32",
"o. c #857C53",
"O. c #817764",
"+. c #867A67",
"@. c #897E6C",
"#. c #A78700",
"$. c #AD9003",
"%. c #B3960B",
"&. c #B1940D",
"*. c #A98E17",
"=. c #AC9518",
"-. c #B29711",
";. c #B39A1A",
":. c #BEAA17",
">. c #BCA31B",
",. c #BEAA19",
"<. c #998937",
"1. c #A9872D",
"2. c #AD8C2D",
"3. c #AA9626",
"4. c #B69C27",
"5. c #B1902D",
"6. c #B58B33",
"7. c #AD9B32",
"8. c #BCA626",
"9. c #A8A738",
"0. c #BCA434",
"q. c #BFB137",
"w. c #C1AD1B",
"e. c #CBB619",
"r. c #C19734",
"t. c #C2AC24",
"y. c #C4AE2A",
"u. c #C6B124",
"i. c #C6B22B",
"p. c #CAB52B",
"a. c #CDBB2E",
"s. c #D2B82B",
"d. c #C5A535",
"f. c #C6AB32",
"g. c #CAAF33",
"h. c #CCB535",
"j. c #CFBA31",
"k. c #C4B53B",
"l. c #CBBE3E",
"z. c #D2BC33",
"x. c #D7BF38",
"c. c #D6C137",
"v. c #DAC537",
"b. c #D4C43D",
"n. c #DBC539",
"m. c #DDCB3B",
"M. c #E3CE3C",
"N. c #E4D53F",
"B. c #8B8147",
"V. c #9F9046",
"C. c #908751",
"Z. c #8C826B",
"A. c #968D6D",
"S. c #8F8471",
"D. c #918673",
"F. c #968B75",
"G. c #998E79",
"H. c #9D9374",
"J. c #9C9179",
"K. c #A4997B",
"L. c #A59A7B",
"P. c #ACA27F",
"I. c #C1B641",
"U. c #C7BC40",
"Y. c #CCC040",
"T. c #D7CD45",
"R. c #DBD345",
"E. c #E4D542",
"W. c #E5DA45",
"Q. c #E9DD46",
"!. c #E1D54E",
"~. c #E4DA4D",
"^. c #E5DB54",
"/. c #ECE446",
"(. c #EEEB4D",
"). c #F2ED46",
"_. c #F1E449",
"`. c #F4EB4B",
"'. c #F6F347",
"]. c #F9F64C",
"[. c #FFFF4E",
"{. c #F4F359",
"}. c #F1EF62",
"|. c #F3F165",
" X c #F8FB6B",
".X c #FCFF74",
"XX c #FFFF7A",
"oX c #ADA281",
"OX c #B1A683",
"+X c #B5AA86",
"@X c #B9AE88",
"#X c #BDB28B",
"$X c #C2B68E",
"%X c #C3B88F",
"&X c #C5BA91",
"*X c #C8BC93",
"=X c #CBC095",
/* pixels */
"#X#J#J#J#J#J#X#X#X#A#X#X#X#X#X#X#X#X#S#X#X#X#X#X#X&XD o 4 X H.$X",
"#X#J#J#J#J#J#X#X#X#A#X#X#X#X#X#X#X#X#S#X#X#X#X#X#X&XA   %   H.%X",
"#X#J#J#J#J#J#X#X#X#A#X#X#X#X#X#X#X#X#S#X#X#X#X#XZ.n <.=.q.b.B.M ",
"#X#J#J#J#J#J#X#X#X#A#X#X#X#X#X#X#X#X#S%X#X#X#X&XA   3.e.m.`.)   ",
"#X#J#J#J#J#J#X#X#X#a#X#X#X#X#X#X#X#X#S#X#X#XA.H V.7.8.w.v.Q.[ % ",
"#X#J#J#J#J#J#X#X#X#a#X#X#X#X#X#X#X#X#S#X%X=XM   7.M.u.:.m.(.[ # ",
"#X#J#J#J#J#J#X#X#X#X#X#X#X#X#X#X#X#X#S#XH.@.V.9.l.M.p.:.v.N._ # ",
"#X#J#J#J#J#J#X#X#X#X#X#X#X#X#X#X#X#X#S*XA   T.[./.W.a.:.a.v.b # ",
"#X#J#J#J#J@J#X#X#X#X@X#X#X#X#X#X@X#XP.L.C.v T.].Q.W.a.w.a.M.b # ",
"#X#X$X%X&X#X#X%X#X&X%X#X#X#X#X#X#X&XN   k.`./.'.Q.Q.a.:.a.v.b # ",
"#X#XOXL.oXOXP.P.oXOXP.P.+X#X#X#XOXoXo.s l.Q.(.{.Q.E.a.:.j.n._ # ",
"$X%XA o ; & - - - - > o H.&X#X%XF . I.W.E.N.|..X!.z.p.w.j.v._ # ",
"@X@XA   , , @ @ @ O @   H.#X+X#XD   U._.W.W.|..X!.j.p.,.p.v.~ # ",
"F % {  .T.(.f.=.3.;.*.*.x 3 u : q.W.R.E.}..X!.n.a.w.j.c.5.' f # ",
"A   { X.W.[.a.%.:.:.&.%.p o o X k._.E.N.|.XX!.s.p.:.j.n.2.! a # ",
"A   j z 5.d.m./.i.-.y.h.3.U k.l.W.).}. X^.R.j.u.t.w.j.v.2.^ a % ",
"A   0 9 ] } W.[.a.%.z.n.>.#.m._.).'. XXX!.s.u.:.w.,.z.M.2.( 7   ",
"A . h l ( | Y./.p.-.t.p.y.y.b.n.W./.~.^.b.p.u.w.p.a.4.5.~ 6 +.J.",
"A   z R ^ ! x._.i.$.w.w.z.n.c.z.E.Q.v.z.u.,.w.,.z.M.2.! q   K.&X",
"A   h k R W 0.k.h.z.y.>.i.p.z.x.m.m.c.p.u.w.p.p.y.d.` g B N L.$X",
"A   t y l Y W T b.`.y.&.,.,.z.c.x.x.u.:.w.,.z.n.r...f   K G.OX#X",
"F X t r k l E E 0.T.y.8.t.w.p.z.j.j.p.u.i.u.g.g.1.( B n Z.L.+X#X",
"N   1 8 r y e q R ! g.m.8.-.,.,.,.:.z.n.n.n.r...h   P F.OX%X#X#X",
"O.d u < 0 w w q E Q 0.h.t.>.t.u.u.u.i.h.h.z.6.| c 3 @.J.OX#X@X#X",
"#X#XC   ; $ 1 9 e y ^ ^ f.v.x.c.x.v.2.^  .6.g X P F.P.#X#X#X#X#X",
"#X%XD o 4 > 1 2 r w E Q d.c.z.z.z.x.1.W | 6.j # O.G.OX$X#X#X#X#X",
"#X#X+X+XJ.Z.n X > $ k R / ' ' ' ' | f = 2 + K D.L.#X@X#X#X#X#X#X",
"#X#X#X$XL.F.m X - # g Y Q ^ ^ / ^ / r # * X P G.+X$X#X#X#X#X#X#X",
"#X#XoXJ.F.F.G C Z Z i 8 0 t 0 t t q V Z P +.L.+X@X#X#X#X#X#X#X#X",
"#X#XG.@.D.D.I J L L 5 . o o o o X   M J @.F.OX%X#X#X#X#X#X#X#X#X",
"#X#X+X+XoX+XF.+.@.@.S V C V V V F G H.L.L.OX+X#X#X#X#X#X#X#X#X#X",
"#X#X#X#X#X#XK.D.F.F.O.K L L L K S.F.+X%X#X$X$X#X#X#X#X#X#X#X#X#X"
};
