/* XPM */
static char *result[] = {
/* columns rows colors chars-per-pixel */
"32 32 107 2 ",
"   c black",
".  c #050001",
"X  c #040002",
"o  c #050102",
"O  c #060203",
"+  c #070204",
"@  c #070304",
"#  c #070305",
"$  c #080305",
"%  c #080405",
"&  c #090505",
"*  c #080406",
"=  c #090406",
"-  c #090506",
";  c #090507",
":  c #0A0608",
">  c #0B0608",
",  c #0A0709",
"<  c #0B0709",
"1  c #0C0709",
"2  c #0C080A",
"3  c #0D080A",
"4  c #0C090A",
"5  c #0D080B",
"6  c #0D090B",
"7  c #0E090A",
"8  c #0E0A0B",
"9  c #0E090C",
"0  c #0E0A0C",
"q  c #0F0B0D",
"w  c #0F0C0F",
"e  c #100C0E",
"r  c #110D10",
"t  c #120E10",
"y  c #120F10",
"u  c #120E11",
"i  c #120F11",
"p  c #130F12",
"a  c #131012",
"s  c #141012",
"d  c #141113",
"f  c #151214",
"g  c #161215",
"h  c #161315",
"j  c #171416",
"k  c #181517",
"l  c #191517",
"z  c #181518",
"x  c #191518",
"c  c #181618",
"v  c #191618",
"b  c #191619",
"n  c #1A1618",
"m  c #1A1619",
"M  c #1A1719",
"N  c #1B171A",
"B  c #1B171B",
"V  c #1C181B",
"C  c #1C191B",
"Z  c #1C181C",
"A  c #1D1A1C",
"S  c #1D1A1D",
"D  c #1E1B1D",
"F  c #1E1A1E",
"G  c #1E1B1E",
"H  c #1F1B1F",
"J  c #1F1C1E",
"K  c #1F1C1F",
"L  c #201D1F",
"P  c #201C20",
"I  c #201D20",
"U  c #211D21",
"Y  c #221F22",
"T  c #232023",
"R  c #232024",
"E  c #242024",
"W  c #242124",
"Q  c #242125",
"!  c #252225",
"~  c #262226",
"^  c #272327",
"/  c #272427",
"(  c #272528",
")  c #282528",
"_  c #292629",
"`  c #29262A",
"'  c #2A272A",
"]  c #2C292D",
"[  c #2E2B2F",
"{  c #2F2B2F",
"}  c #2F2C2F",
"|  c #2F2C30",
" . c #302D31",
".. c #312E32",
"X. c #322E32",
"o. c #322E33",
"O. c #322F33",
"+. c #322F34",
"@. c #333034",
"#. c #333235",
"$. c #343135",
"%. c #353136",
"&. c #353236",
"*. c #363237",
"=. c #363337",
"-. c #39353A",
";. c None",
/* pixels */
";.;.;.;.;.;.;.;.;.;.;.;.;.;.;.;.;.;.;.;.;.;.;.;.;.;.;.;.;.;.;.;.",
";.;.;.: & 7 9 7 0 4 0 7 7 9 9 9 9 9 7 7 0 4 0 7 9 9 7 & : ;.;.;.",
";.;.h @.O.| } | [ O.N ) ..{ | } | {  .' x O.[ | | } | O.@.h ;.;.",
";.;.N &.! Y ) / ) ! a B / ) ( ) ( ) / Z i W ) / / ) Y ! &.N ;.;.",
";.;.n ] X u k f s 6 - * r s p a a s t * ; 3 d i f k u X ] n ;.;.",
";.;.;.G 2 t 9 g I K I I K H K K K H K I I P G I g 9 t 2 G ;.;.;.",
";.;.V @.k 5 S  .%.$.$.$.$.$.$.$.$.$.$.$.$.$.$.%. .S 5 k @.V ;.;.",
";.;.x @.L O ! &...O.O.O.O.O.O.O.O.O.O.O.O.O.O...&.! O L @.x ;.;.",
";.;.b @.G # E $...O.O.O.O.O.O.O.O.O.O.O.O.O.O...$.E # G @.b ;.;.",
";.;.x @.K + W $...O.O.O.O.O.O.O.O.O.O.O.O.O.O...$.W + K @.x ;.;.",
";.;.V $.M = W $...O.O.O.O.O.O.O.O.O.O.O.O.O.O...$.W = M $.V ;.;.",
";.;.;.K > 1 R $...O.O.O.O.O.O.O.O.O.O.O.O.O.O...$.R 1 > K ;.;.;.",
";.;.l ] t > R $...O.O.O.O.O.O.O.O.O.O.O.O.O.O...$.R > t ] l ;.;.",
";.;.M $.K @ W $...O.O.O.O.O.O.O.O.O.O.O.O.O.O...$.W @ K $.M ;.;.",
";.;.v @.G @ W $...O.O.O.O.O.O.O.O.O.O.O.O.O.O.$.&.T $ G @.v ;.;.",
";.;.v @.J @ W $...O.O.O.O.O.O.O.O.O.O.O.O.$. .Y ..^ o J @.v ;.;.",
";.;.N $.G @ W $...O.O.O.O.O.O.O.O.O.O.O.@.] I _ W m 3 D $.N ;.;.",
";.;.c ` e > R $...O.O.O.O.O.O.O.O.O.O.O.$.( . I q 2 p 0 ` c ;.;.",
";.;.c Y 2 < R $...O.O.O.O.O.O.O.O.O.O.O.+. .F   I P 6 < Y c ;.;.",
";.;.V $.C % W $...O.O.O.O.O.O.O.O.O.O.O.O.@.O.] $.~ @ C $.V ;.;.",
";.;.x @.K + W $...O.O.O.O.O.O.O.O.O.O.O.O.O.O.@.$.R @ K @.x ;.;.",
";.;.v @.G @ W $...O.O.O.O.O.O.O.O.O.O.O.O.O.O...$.W @ G @.v ;.;.",
";.;.v @.G @ W $...O.O.O.O.O.O.O.O.O.O.O.O.O.O...$.W @ G @.v ;.;.",
";.;.x @.J @ W $...O.O.O.O.O.O.O.O.O.O.O.O.O.O...$.W @ J @.x ;.;.",
";.;.V $.A $ W $...O.O.O.O.O.O.O.O.O.O.O.O.O.O...$.W $ A $.V ;.;.",
";.;.z Q 6 < R $...O.O.O.O.O.O.O.O.O.O.O.O.O.O...$.R < 6 Q z ;.;.",
";.;.z / 0 < R $...O.O.O.O.O.O.O.O.O.O.O.O.O.O...$.R < 0 / z ;.;.",
";.;.V $.D # W $...O.O.O.O.O.O.O.O.O.O.O.O.O.O...$.W # D $.V ;.;.",
";.;.j @.L + W $...O.O.O.O.O.O.O.O.O.O.O.O.O.O...$.W + L @.j ;.;.",
"6 a O.O.K % ^ -.*.=.=.=.=.=.=.=.=.=.=.=.=.=.=.*.-.^ % K O.O.a 6 ",
"8 y / U w , W #.X.o.o.o.o.o.o.o.o.o.o.o.o.o.o.X.#.W , w U / y 8 ",
";.;.;.;.;.;.;.;.;.;.;.;.;.;.;.;.;.;.;.;.;.;.;.;.;.;.;.;.;.;.;.;."
};
