/* XPM */
static char *result[] = {
/* columns rows colors chars-per-pixel */
"32 32 170 2 ",
"   c #000000",
".  c #00000A",
"X  c #000014",
"o  c #00001A",
"O  c #030D1D",
"+  c #06131F",
"@  c #000025",
"#  c #18002E",
"$  c #031522",
"%  c #001328",
"&  c #001D2B",
"*  c #1A1D26",
"=  c #260E32",
"-  c #211B30",
";  c #0A2225",
":  c #002E21",
">  c #0A2E2E",
",  c #132725",
"<  c #122E2B",
"1  c #1B3824",
"2  c #17302A",
"3  c #1A322C",
"4  c #002E33",
"5  c #053232",
"6  c #153D33",
"7  c #1C3C32",
"8  c #222D2D",
"9  c #233431",
"0  c #233B33",
"q  c #313A38",
"w  c #0A493C",
"e  c #1C4237",
"r  c #16433B",
"t  c #15493B",
"y  c #1E4A3B",
"u  c #00543C",
"i  c #2A472C",
"p  c #204537",
"a  c #2C463B",
"s  c #254C3C",
"d  c #2A4B3E",
"f  c #37483A",
"g  c #355532",
"h  c #3D5F37",
"j  c #406439",
"k  c #48723D",
"l  c #005A42",
"z  c #185240",
"x  c #2B4E40",
"c  c #3F4942",
"v  c #255443",
"b  c #2A5442",
"n  c #2B5944",
"m  c #2A5B47",
"M  c #345444",
"N  c #305946",
"B  c #325E4A",
"V  c #23654D",
"C  c #2F664E",
"Z  c #30674F",
"A  c #2E6850",
"S  c #306750",
"D  c #306950",
"F  c #3A6F56",
"G  c #357156",
"H  c #397559",
"J  c #476943",
"K  c #4D7342",
"L  c #4D774A",
"P  c #517546",
"I  c #537B47",
"U  c #547B4B",
"Y  c #596557",
"T  c #547860",
"R  c #697665",
"E  c #558346",
"W  c #5A854C",
"Q  c #5E894E",
"!  c #5D9048",
"~  c #5C8352",
"^  c #5C8951",
"/  c #60924C",
"(  c #618C52",
")  c #68885D",
"_  c #659354",
"`  c #699756",
"'  c #6A9A57",
"]  c #6C965D",
"[  c #6C9C5A",
"{  c #6FB74C",
"}  c #6EAA55",
"|  c #70AA57",
" . c #72A45E",
".. c #73A95D",
"X. c #71B651",
"o. c #77B55A",
"O. c #7BBB5D",
"+. c #618369",
"@. c #708869",
"#. c #72886A",
"$. c #7A997C",
"%. c #77AB61",
"&. c #79AE63",
"*. c #7CB365",
"=. c #7FBB65",
"-. c #7BC557",
";. c #7FC161",
":. c #83957B",
">. c #81BD66",
",. c #81B769",
"<. c #85BE6B",
"1. c #85A07A",
"2. c #89B078",
"3. c #8DB97A",
"4. c #81C264",
"5. c #86C16C",
"6. c #89C46E",
"7. c #87CB68",
"8. c #8BC571",
"9. c #8DCA72",
"0. c #91CE74",
"q. c #96CB7E",
"w. c #96D678",
"e. c #809F81",
"r. c #8B9B83",
"t. c #85A485",
"y. c #8FA086",
"u. c #8AA989",
"i. c #91A486",
"p. c #93A48A",
"a. c #97A98C",
"s. c #99AE8E",
"d. c #95BA85",
"f. c #9FB194",
"g. c #A2B597",
"h. c #A6BB9B",
"j. c #AABC9E",
"k. c #99C087",
"l. c #99CA82",
"z. c #A2D18C",
"x. c #AAC69B",
"c. c #ABCA9B",
"v. c #ABD596",
"b. c #AEDA99",
"n. c #ADC1A1",
"m. c #B4C8A7",
"M. c #B5D3A4",
"N. c #B6DBA2",
"B. c #B9DDA6",
"V. c #BBD1AE",
"C. c #BED2B0",
"Z. c #BEE2AC",
"A. c #C2D8B4",
"S. c #C9DEBA",
"D. c #C2E6AF",
"F. c #C3E6B1",
"G. c #C5E8B1",
"H. c #CBE1BC",
"J. c #D0EEBE",
"K. c #D2E7C2",
"L. c #D5EBC4",
"P. c #D8F3C7",
"I. c #DCF4CB",
"U. c #E0F7CF",
"Y. c #E0F8CF",
"T. c #E3FBD2",
"R. c #E8FFD6",
"E. c #ECFFDA",
"W. c #F0FFDE",
"Q. c #F4FFE2",
/* pixels */
"D D D D S D D S S S Z n n n n n n n n n n n n C C C D S D D A D ",
"D S S D D S D D D G v                         r G D D D D Z D Z ",
"S S S S D S S D N r J ` _ _ _ _ _ _ _ _ _ _ _ L r m D S A S D D ",
"S S S S D D D G z   K 0.6.8.8.8.8.8.8.9.9.8.9.Q   6 G D D D D Z ",
"S S S S S D n & U ..&.5.<.<.<.<.5.4.<.<.<.<.5.*.%.^ ; s D D D S ",
"D S S D A D s   ( 0.6.5.5.6.6.6.5.5.<.<.6.6.6.6.9.[   0 D D D D ",
"D S D D D D y   Q 9. .1 g i h <.5.5.6.K i g 1 ` 9.'   6 D D Z D ",
"S D D D D S M = ( 9.[ # q - f 6.5.<.8.J # q # ( 9.[ = M A C Z D ",
"D D A D d   n.E.h.  r.T.P.T.P.>.>.>.o.L.T.P.T.f.  p.R.C.  0 D D ",
"D S D D a   m.E.j.  i.R.I.K.H.l.l.l.q.H.K.I.R.h.  s.E.A.  0 D D ",
"D D D D a   m.Q.D.{ b.E.S.  c Y.T.T.R.R   V.E.B.{ Z.E.S.  9 D D ",
"D D D D M   s.S.x.X.v.R.H.  Y U.T.I.T.#.  C.R.N.X.k.S.j.. x D D ",
"D D D D D G :   E 7.v.W.H.  8 U.I.U.T.Y   V.Q.B.7.[     G D D D ",
"D D A D D D C s U / 2.D.N.a.g.I.I.U.T.n.p.M.G.d.! U x N D S D D ",
"D A D D D D D H w   j 4.z.Q.W.R.R.T.R.E.Q.b.-.E   4 H D S D D S ",
"D D D D C D d 5 U  ._ U ) i.y.p.p.p.p.p.i.@.I _  .~ 5 b D Z Z D ",
"D D D D D G e   W w.[                         ( w.'   > F D D D ",
"D D D D s @ ( &.*.6.<.| 3.H.S.S.H.H.H.S.K.d.} ,.5.,.&.' % e D D ",
"C D Z D 7   [ 0.<.<.6.5.z.E.R.T.T.T.T.T.E.b.>.6.<.5.9.%.  2 D D ",
"D D 7 o  .<.>.5.` o W 8.<.8.l.U.T.T.T.z.8.6.6._ X Q 6.>.,.%.$ < ",
"D D 3 . %.6.8.q.]   P 8.<.>.8.P.P.P.I.l.O.<.8.(   ~ q.3.6.*.o + ",
"D D 2   &.4.G.Q.x.  U 8.<.5.<.6.6.<.<.6.6.<.9.(   a.W.J.4.<.X + ",
"D D p % [ | c.L.a.  U 9.<.5.5.5.<.<.<.<.<.<.6.(   :.L.M.} %.> 7 ",
"Z D D G &         X P 6.<.5.5.6.8.8.8.6.6.<.9.Q X .     . o G D ",
"D S S D s y s d 0 . P 9.<.6.5.[ [ [ ' <.8.5.9.(   0 b s p s D D ",
"S S D D G A D G n . k 4.o.O.o.. . .   } =.o.;.E   s G D D D D D ",
"S S S S Z A D D b   @.F.B.Z.M., , 3   c.Z.B.G.1.  d D S Z Z D D ",
"S S D D D D S G N   r.Q.E.W.Y.o o *   L.W.R.Q.j.  M D S D D D D ",
"D D D D D Z D D C t T u.t.t.e.m n m z $.u.t.u.+.u C D D D Z D S ",
"D C D C D D D D A F V u u u l D D D G l u u u z D D D S D D S S ",
"Z D D D D D C D b ; 3 0 0 0 0 < < < < 0 9 B F D Z D D D D D S S ",
"S S D D D D D D s X $ O O O O O O O O $ X n D Z D Z S D S S S S "
};
