/* XPM */
static char *result[] = {
/* columns rows colors chars-per-pixel */
"32 32 75 1 ",
"  c #0C080A",
". c #0D080A",
"X c #0D090A",
"o c #0D080B",
"O c #0D090B",
"+ c #0E090B",
"@ c #0E0A0C",
"# c #0F0A0C",
"$ c #0F0B0D",
"% c #0F0B0E",
"& c #0F0C0E",
"* c #100C0E",
"= c #100D0F",
"- c #110D0F",
"; c #110D10",
": c #110E10",
"> c #120F11",
", c #130F11",
"< c #141012",
"1 c #141113",
"2 c #151113",
"3 c #151114",
"4 c #151214",
"5 c #161214",
"6 c #161215",
"7 c #161315",
"8 c #171316",
"9 c #171416",
"0 c #171417",
"q c #181417",
"w c #181517",
"e c #181518",
"r c #191518",
"t c #191618",
"y c #191619",
"u c #1A1719",
"i c #1A171A",
"p c #1B181A",
"a c #1B181B",
"s c #1C191B",
"d c #1C191C",
"f c #201D20",
"g c #211E21",
"h c #221F21",
"j c #221F22",
"k c #242124",
"l c #252225",
"z c #262326",
"x c #262327",
"c c #272427",
"v c #272428",
"b c #272528",
"n c #282528",
"m c #282529",
"M c #282629",
"N c #292629",
"B c #29262A",
"V c #2A272A",
"C c #2A272B",
"Z c #2B282C",
"A c #2C292C",
"S c #2C292D",
"D c #2D2A2E",
"F c #2E2B2F",
"G c #2F2C30",
"H c #302D30",
"J c #302D31",
"K c #312E32",
"L c #322F33",
"P c #332F34",
"I c #333034",
"U c #343135",
"Y c #343136",
"T c #353236",
"R c None",
/* pixels */
"wqyuuuuie$uuuuuuuuir$uuuuuuuywwR",
"ITJGGGGJZ-GGGGGGGGHS*GGGGGGGKTK+",
"LSzkkkklh*lkkkkkkklj&kkkkkkkzDGX",
"Izu999907$9999999997$9999998pnJO",
"t7# ....O$.........O$...... $8w$",
"Lv3@$$$%$$$$$$$$$$%$$$$$$$$@9BJO",
"Ln2@$$$$$$$$$$$$$$$$$$$$$$$O9VJO",
"Ln2@$$$$$$$$$$$$$$$$$$$$$$$O9VJO",
"Ln2@$$$$$$$$$$$$$$$$$$$$$$$O9VJO",
"Lc1@$$$$$$$$$$$$$$$$$$$$$$$O8NHX",
"TV4@$$$$$$$$$$$$$$$$$$$$$$$OqAI#",
"ga:$$$$$$$$$$$$$$$$$$$$$$$$@>dgR",
"Mf,@$$$$$$$$$$$$$$$$$$$$$$$@1jn.",
"UN4@$$$$$$$$$$$$$$$$$$$$$$$O9ZL@",
"Lc2@$$$$$$$$$$$$$$$$$$$$$$$O8BJX",
"Ln2@$$$$$$$$$$$$$$$$$$$$$$$O9VJO",
"Lb2@$$$$$$$$$$$$$$$$$$$$$$$O8BJO",
"Im3@$$$$$$$$$$$$$$$$$$$$$$$O9CKO",
"Fk<@$$$$$$$$$$$$$$$$$$$$$$$+5zSO",
"s9-$$$$$$$$$$$$$$$$$$$$$$$$$;wp#",
"TB4@$$$$$$$$$$$$$$$$$$$$$$$OqZLX",
"Lc1@$$$$$$$$$$$$$$$$$$$$$$$O8NJO",
"Ln2@$$$$$$$$$$$$$$$$$$$$$$$O9VJO",
"Ln2@$$$$$$$$$$$$$$$$$$$$$$$O9VJO",
"Ln2@$$$$$$$$$$$$$$$$$$$$$$$O9VJO",
"Lb2@$$$$$$$$$$$$$$$$$$$$$$$O8BJO",
"Im3@$$$$$$$$$$$$$$$$$$$$$$$O9CK+",
"Fl<@$$$$$$$$$$$$$$$$$$$$$$$+6xDo",
"a9=$$$$$$$$$$$$$$$$$$$$$$$$$-waR",
"YN4@$$$$$$$$$$$$$$$$$$$$$$$O9ZP@",
"Lc1@$$$$$$$$$$$$$$$$$$$$$$$O8NJX",
"Ln2@$$$$$$$$$$$$$$$$$$$$$$$O9VJO"
};
