/* XPM */
static char *result[] = {
/* columns rows colors chars-per-pixel */
"32 32 10 1 ",
"  c #629AFE",
". c #639AFE",
"X c #629BFE",
"o c #639BFE",
"O c #639AFF",
"+ c #639BFF",
"@ c #629CFE",
"# c #639CFE",
"$ c #639DFE",
"% c #639CFF",
/* pixels */
"@%@@##%@%%%#@%@@@o  ##%@%%%#@%@$",
" OOOOOOOOOOOOOOOO+++OOOOOOOOOO #",
"X+++++++++++++++++++++++++++++o%",
" +++++++++++++++++++++++++++++ %",
" +++++++++++++++++++++++++++++ %",
" +++++++++++++++++++++++++++++ %",
" +++++++++++++++++++++++++++++ %",
" +++++++++++++++++++++++++++++ %",
" +++++++++++++++++++++++++++++ %",
" +++++++++++++++++++++++++++++ %",
" +++++++++++++++++++++++++++++ %",
"++++++++++++++++++++++++++++++ %",
"++++++++++++++++++++++++++++++ %",
".+++++++++++++++++++++++++++++ %",
" +++++++++++++++++++++++++++++ %",
" +++++++++++++++++++++++++++++ %",
" +++++++++++++++++++++++++++++ #",
" ++++++++++++++++++++++++++++++ ",
" ++++++++++++++++++++++++++++++ ",
" +++++++++++++++++++++++++++++.o",
" +++++++++++++++++++++++++++++ #",
" +++++++++++++++++++++++++++++ %",
" +++++++++++++++++++++++++++++ %",
" +++++++++++++++++++++++++++++ %",
" +++++++++++++++++++++++++++++ %",
" +++++++++++++++++++++++++++++ %",
" +++++++++++++++++++++++++++++ %",
" +++++++++++++++++++++++++++++ %",
" +++++++++++++++++++++++++++++ %",
" +++++++++++++++++++++++++++++ %",
"o+++++++++++++++++++++++++++++X#",
"... ..O O.OXoO   O  ..O OOO. O  "
};
